<svg xmlns="http://www.w3.org/2000/svg" width="1024" height="1024" viewBox="0 0 1024 1024">
<g>
<path d="M 326.22 875.44 C320.67,871.55 325.31,865.14 337.26,860.17 C344.24,857.27 367.92,850.00 370.38,850.00 C372.16,850.00 408.72,839.95 430.00,833.61 C462.72,823.87 544.11,796.16 578.50,783.05 C584.55,780.75 612.00,770.39 639.50,760.03 C667.00,749.67 690.62,740.72 692.00,740.14 C697.75,737.71 745.78,720.81 761.50,715.68 C803.21,702.07 837.09,692.75 869.00,686.11 C900.31,679.59 902.43,678.87 901.51,675.10 C901.16,673.67 899.02,669.41 896.76,665.64 C891.18,656.35 886.70,643.98 883.50,629.00 C882.03,622.12 879.98,612.98 878.94,608.68 C876.84,599.96 869.94,584.76 865.09,578.20 C860.76,572.33 853.72,568.00 848.55,568.01 C839.02,568.03 825.82,579.61 812.07,600.00 C785.11,640.00 768.83,655.12 750.98,656.74 C745.94,657.19 744.27,656.88 739.58,654.58 C732.91,651.32 729.60,647.57 727.34,640.70 C725.90,636.35 725.60,630.99 725.49,607.76 C725.41,592.50 725.05,579.72 724.69,579.35 C723.56,578.23 719.17,589.40 709.50,618.00 C704.38,633.12 699.53,647.33 698.71,649.57 C693.99,662.44 685.69,673.98 676.36,680.64 C669.88,685.26 669.22,685.50 663.02,685.50 C654.52,685.50 651.32,683.30 647.44,674.79 C644.79,668.98 644.55,667.39 644.18,654.00 C643.73,637.13 645.66,617.89 649.55,600.58 C650.97,594.22 651.97,588.00 651.75,586.76 C651.15,583.28 648.02,590.91 638.51,619.00 C628.24,649.35 626.79,653.24 621.46,664.67 C610.78,687.57 596.96,701.00 584.09,701.00 C572.66,701.00 567.75,690.36 570.06,670.60 C572.05,653.49 582.36,615.01 596.41,572.29 C609.39,532.78 612.93,520.60 611.76,519.43 C610.73,518.40 599.11,524.96 578.23,538.35 C546.05,559.01 537.82,563.44 520.50,569.45 C516.10,570.97 511.91,572.77 511.20,573.45 C510.48,574.12 509.46,577.79 508.92,581.59 C506.96,595.51 499.04,606.84 484.87,616.01 C481.37,618.28 458.82,629.97 434.77,641.99 C390.02,664.34 385.77,666.70 383.95,670.09 C383.37,671.17 382.25,681.15 381.45,692.27 C379.75,716.02 379.90,714.82 374.96,745.00 C372.84,757.92 370.15,775.01 368.97,782.96 C367.80,790.92 366.37,798.35 365.80,799.46 C363.78,803.41 359.61,806.98 356.31,807.60 C347.68,809.22 342.19,803.12 329.15,777.40 C311.49,742.57 304.31,733.02 285.85,719.84 C267.98,707.09 263.47,701.03 264.21,690.82 C265.18,677.35 275.41,672.00 313.50,665.03 C331.01,661.82 342.27,659.21 353.00,655.86 C365.79,651.86 370.91,649.31 371.45,646.66 C371.70,645.47 372.37,635.50 372.94,624.50 C373.52,613.50 374.88,594.60 375.98,582.50 C377.08,570.40 378.67,552.40 379.53,542.50 C380.39,532.60 381.94,514.83 382.99,503.00 C385.34,476.40 387.57,444.23 389.03,416.00 C389.63,404.17 390.47,388.20 390.88,380.50 C391.96,360.41 391.18,359.36 385.50,373.25 C383.42,378.34 375.90,396.23 368.79,413.00 C361.68,429.77 354.35,447.10 352.50,451.50 C350.66,455.90 347.35,463.77 345.16,469.00 C342.97,474.23 335.55,492.45 328.66,509.50 C321.78,526.55 312.26,549.95 307.50,561.50 C302.75,573.05 295.98,589.47 292.47,598.00 C284.71,616.83 275.37,640.64 264.98,668.00 C260.70,679.28 254.43,695.70 251.04,704.50 C234.73,746.85 232.23,753.55 214.47,802.50 C197.44,849.46 192.59,861.16 188.57,864.94 C183.05,870.12 173.55,867.95 169.83,860.67 C167.95,856.99 167.88,856.12 168.99,851.06 C171.01,841.82 206.26,756.20 223.10,719.61 C241.50,679.64 243.45,675.34 253.33,653.00 C258.55,641.17 264.48,627.90 266.50,623.50 C268.52,619.10 271.30,613.03 272.68,610.00 C274.06,606.97 282.96,587.85 292.46,567.50 C335.65,474.95 351.01,437.72 378.28,359.50 C390.97,323.10 393.54,314.15 396.50,296.00 C402.70,257.95 408.04,238.86 414.71,230.93 C418.86,226.00 426.55,227.08 428.97,232.93 C430.72,237.16 429.31,244.28 421.61,270.11 C418.10,281.87 414.50,294.05 413.61,297.16 C411.24,305.47 408.47,322.63 405.50,347.50 C404.05,359.60 402.22,374.90 401.43,381.50 C393.32,449.22 388.19,518.90 386.01,591.00 C384.64,636.59 384.67,639.93 386.47,640.63 C388.80,641.52 432.99,618.67 457.46,603.91 C471.11,595.68 477.06,590.69 480.25,584.78 C482.32,580.95 482.47,578.62 480.75,577.26 C480.06,576.71 474.11,575.08 467.52,573.62 C454.45,570.73 446.55,567.47 436.82,560.92 C422.10,551.02 415.89,543.84 411.32,531.38 C404.99,514.15 408.13,487.66 419.10,465.82 C425.92,452.26 446.45,428.96 455.52,424.49 C460.81,421.88 468.27,422.01 473.65,424.79 C483.90,430.10 490.85,445.15 494.05,469.00 C497.41,494.00 506.64,538.65 509.05,541.57 C513.44,546.85 532.32,538.39 567.56,515.36 C608.95,488.31 619.47,484.39 630.50,491.88 C640.41,498.61 642.08,508.33 636.91,529.14 C634.92,537.14 629.11,553.87 619.16,580.18 C608.16,609.29 594.00,656.65 594.00,664.32 C594.00,667.04 594.18,667.25 595.45,665.96 C597.58,663.80 610.89,636.65 617.92,620.13 C623.72,606.50 633.54,580.80 645.67,547.50 C654.07,524.44 666.05,494.81 668.21,491.73 C674.35,483.01 686.76,484.69 690.07,494.70 C692.77,502.89 688.20,531.36 678.95,564.00 C669.38,597.79 667.03,609.13 665.05,631.10 C664.02,642.46 664.53,656.62 666.04,659.07 C667.78,661.88 678.58,649.13 682.61,639.50 C687.91,626.86 700.72,584.07 708.48,553.13 C716.53,521.06 720.68,514.94 733.79,515.84 C735.05,515.93 738.30,518.07 741.01,520.61 C750.30,529.30 752.68,540.85 752.11,574.50 C751.45,614.09 751.48,627.81 752.22,628.55 C754.09,630.42 766.01,619.53 776.94,606.00 C781.16,600.78 788.28,591.33 792.78,585.00 C815.71,552.74 833.19,539.65 851.18,541.28 C866.36,542.66 882.48,556.11 892.29,575.58 C896.44,583.83 899.24,592.94 905.47,618.50 C910.47,639.04 914.98,650.66 921.86,660.80 C936.24,681.97 934.03,691.65 912.56,701.57 C904.48,705.30 896.58,706.85 859.50,712.00 C833.65,715.59 818.90,718.48 795.00,724.63 C773.02,730.28 737.32,740.23 725.50,743.99 C720.55,745.56 709.53,748.95 701.00,751.52 C682.50,757.10 648.23,768.07 600.50,783.71 C565.14,795.29 547.57,801.23 503.00,816.70 C426.03,843.41 368.37,862.91 354.00,867.10 C348.23,868.79 340.46,871.70 336.75,873.58 C328.96,877.53 329.15,877.49 326.22,875.44 ZM 353.45 761.75 C360.29,738.01 367.58,700.90 368.69,684.28 L 369.30 675.05 L 366.40 675.89 C364.80,676.36 356.08,679.01 347.00,681.80 C337.92,684.59 326.00,687.82 320.50,688.98 C304.66,692.34 297.70,693.97 297.22,694.44 C296.98,694.68 302.83,700.87 310.21,708.19 C324.66,722.52 330.39,730.33 340.48,749.50 C347.93,763.64 349.96,767.00 351.05,767.00 C351.54,767.00 352.62,764.64 353.45,761.75 ZM 480.34 544.56 C480.64,543.76 480.45,541.63 479.91,539.81 C478.54,535.20 471.40,492.12 469.49,477.00 C466.97,456.96 466.04,453.00 463.88,453.00 C459.79,453.00 448.76,473.01 444.86,487.50 C441.73,499.11 441.70,515.61 444.80,522.42 C449.37,532.48 457.59,539.49 470.06,543.97 C476.60,546.32 479.60,546.49 480.34,544.56 ZM 645.13 452.53 C637.84,449.82 632.95,445.56 630.03,439.35 C627.35,433.65 627.34,426.66 630.00,424.00 C632.76,421.24 636.67,421.49 645.50,425.00 C650.25,426.89 654.86,428.00 657.92,428.00 C674.45,428.00 695.78,413.24 718.25,386.24 C738.13,362.35 752.43,341.63 760.01,325.76 C770.70,303.35 767.47,298.92 741.50,300.34 C727.30,301.11 723.94,301.76 690.59,310.12 C648.27,320.74 605.72,333.16 558.86,348.58 C542.11,354.09 528.57,358.00 526.24,358.00 C518.32,358.00 514.16,351.01 519.25,346.24 C525.60,340.29 605.37,310.86 665.00,292.47 C716.27,276.67 747.94,271.21 763.87,275.45 C786.14,281.38 798.36,299.20 792.47,317.15 C789.97,324.78 776.92,350.37 771.82,357.68 C769.44,361.08 759.41,374.57 749.51,387.66 C723.63,421.93 707.43,437.63 687.64,447.66 C673.02,455.07 656.93,456.91 645.13,452.53 Z" fill="rgba(0,0,0,1)"/>
</g>
</svg>